<?xml version="1.0" encoding="UTF-8" standalone="no"?>
<svg
   xmlns:dc="http://purl.org/dc/elements/1.1/"
   xmlns:cc="http://creativecommons.org/ns#"
   xmlns:rdf="http://www.w3.org/1999/02/22-rdf-syntax-ns#"
   xmlns:svg="http://www.w3.org/2000/svg"
   xmlns="http://www.w3.org/2000/svg"
   xmlns:sodipodi="http://sodipodi.sourceforge.net/DTD/sodipodi-0.dtd"
   xmlns:inkscape="http://www.inkscape.org/namespaces/inkscape"
   sodipodi:docname="train_car.svg"
   inkscape:version="1.0 (4035a4fb49, 2020-05-01)"
   id="svg1626"
   version="1.1"
   viewBox="0 0 210 297"
   height="297mm"
   width="210mm">
  <defs
     id="defs1620" />
  <sodipodi:namedview
     inkscape:window-maximized="1"
     inkscape:window-y="-12"
     inkscape:window-x="-12"
     inkscape:window-height="1714"
     inkscape:window-width="2736"
     showgrid="false"
     inkscape:document-rotation="0"
     inkscape:current-layer="layer1"
     inkscape:document-units="mm"
     inkscape:cy="559.34113"
     inkscape:cx="400"
     inkscape:zoom="2.4865144"
     inkscape:pageshadow="2"
     inkscape:pageopacity="0.0"
     borderopacity="1.0"
     bordercolor="#666666"
     pagecolor="#ffffff"
     id="base" />
  <metadata
     id="metadata1623">
    <rdf:RDF>
      <cc:Work
         rdf:about="">
        <dc:format>image/svg+xml</dc:format>
        <dc:type
           rdf:resource="http://purl.org/dc/dcmitype/StillImage" />
        <dc:title></dc:title>
      </cc:Work>
    </rdf:RDF>
  </metadata>
  <g
     id="layer1"
     inkscape:groupmode="layer"
     inkscape:label="Layer 1">
    <g
       id="g2414">
      <rect
         y="121.37624"
         x="53.227627"
         height="14.814616"
         width="10.53538"
         id="rect2307"
         style="fill:#007f00;fill-opacity:1;stroke:none;stroke-width:2.77055;stroke-miterlimit:4;stroke-dasharray:none;stroke-opacity:1" />
      <rect
         style="fill:#000000;stroke:#000000;stroke-width:0;stroke-miterlimit:4;stroke-dasharray:none;stroke-opacity:1"
         id="rect2394"
         width="10.136872"
         height="2.1626534"
         x="53.287628"
         y="120.31791" />
      <rect
         y="135.08652"
         x="53.200508"
         height="2.1626534"
         width="9.8176508"
         id="rect2394-2"
         style="fill:#000000;stroke:#000000;stroke-width:0;stroke-miterlimit:4;stroke-dasharray:none;stroke-opacity:1" />
    </g>
    <rect
       style="stroke:#000000;stroke-width:2.64583;stroke-miterlimit:4;stroke-dasharray:none;stroke-opacity:1"
       x="62.330914"
       y="91.37394"
       width="85.309601"
       height="57.105022"
       fill="#e00202"
       id="rect88" />
    <g
       id="g2237">
      <g
         id="g116"
         stroke-width="1.25"
         fill-rule="evenodd"
         fill="#ff7f00"
         transform="matrix(0.26458333,0,0,0.26458333,-83.462441,-31.278919)">
        <path
           id="path112"
           d="m 703.66,679.4 c 0,-39.544 -35.039,-71.6 -78.261,-71.6 -43.222,0 -78.261,32.057 -78.261,71.6 -0.0618,25.618 14.841,49.314 39.08,62.14 24.239,12.825 54.121,12.825 78.361,1.8e-4 24.239,-12.825 39.142,-36.521 39.081,-62.14 l -78.261,-3e-4 h 78.261 z" />
        <path
           id="path114"
           d="m 877.46,679.4 c 0,-39.544 -35.039,-71.6 -78.261,-71.6 -43.222,0 -78.261,32.057 -78.261,71.6 -0.0618,25.618 14.841,49.314 39.08,62.14 24.239,12.825 54.121,12.825 78.361,1.8e-4 24.239,-12.825 39.142,-36.521 39.081,-62.14 l -78.261,-3e-4 h 78.261 z" />
      </g>
      <g
         id="g134"
         stroke-width="7"
         stroke-linejoin="null"
         stroke-linecap="null"
         stroke-dasharray="none"
         stroke="#7f3f00"
         fill="#ffc700"
         transform="matrix(0.26458333,0,0,0.26458333,-178.41505,-29.945582)">
        <ellipse
           id="ellipse130"
           ry="40"
           rx="42"
           cy="674.44"
           cx="983.45001" />
        <ellipse
           id="ellipse132"
           ry="40"
           rx="42"
           cy="674.44"
           cx="1158.9" />
      </g>
    </g>
  </g>
</svg>
