<?xml version="1.0" encoding="UTF-8"?>
<svg viewBox="0 0 793.7 1122.5" xmlns="http://www.w3.org/2000/svg">
 <g stroke="#000">
  <g stroke-dasharray="null" stroke-linecap="null" stroke-linejoin="null">
   <ellipse transform="rotate(269.86 -320.67 385.21)" cx="-320.67" cy="385.21" rx="23" ry="58.946" fill="#00007f" stroke-width="7"/>
   <g stroke-width="10">
    <g fill="#e00202">
     <path transform="rotate(179.66 -322.82 267.74)" d="m-326.57 198.76l-85.266 136.18 178.05 1.7858c-30.927-45.989-61.854-91.979-92.781-137.97z"/>
     <path d="m-433.88 621.48l-88.117 105.14 184 1.3787c-31.961-35.507-63.922-71.013-95.883-106.52z"/>
    </g>
    <ellipse cx="-395.15" cy="531.48" rx="52" ry="124" fill="#ffc700"/>
    <rect x="140.85" y="577.48" width="766" height="46" fill="#007f00"/>
   </g>
  </g>
  <g fill-rule="evenodd" stroke-width="10">
   <rect x="-395.51" y="387.65" width="546.43" height="279.83" fill="#007f00"/>
   <rect x="-205.07" y="187.7" width="356.45" height="199.07" fill="#ffc700"/>
   <rect x="-372.86" y="264.45" width="102.61" height="111.16" fill="#007f00"/>
  </g>
 </g>
 <g fill="#ff7f00" fill-rule="evenodd" stroke-width="1.25">
  <path d="m-238.94 684.44c0-39.544-35.039-71.601-78.261-71.601s-78.261 32.057-78.261 71.601c-0.061768 25.618 14.841 49.314 39.08 62.14 24.239 12.825 54.121 12.825 78.361 1.83e-4 24.239-12.825 39.142-36.521 39.081-62.139l-78.261-3e-4h78.261z"/>
  <path d="m-65.14 684.44c0-39.544-35.039-71.601-78.261-71.601s-78.261 32.057-78.261 71.601c-0.061768 25.618 14.841 49.314 39.08 62.14 24.239 12.825 54.121 12.825 78.361 1.83e-4 24.239-12.825 39.142-36.521 39.081-62.139l-78.261-3e-4h78.261z"/>
  <path d="m169.36 660.41c0-57.198-48.47-103.56-108.26-103.56-59.791 0-108.26 46.368-108.26 103.56-0.085449 37.055 20.53 71.33 54.061 89.88 33.531 18.551 74.868 18.551 108.4 2.44e-4 33.531-18.551 54.147-52.826 54.062-89.88l-108.26-5e-4h108.26z"/>
 </g>
 <g stroke="#000">
  <rect x="-171.12" y="213.69" width="119.89" height="119.87" fill="#fff" fill-rule="evenodd" stroke-dasharray="2,2" stroke-linecap="round" stroke-linejoin="bevel" stroke-width="10"/>
  <g fill="none" stroke-dasharray="null" stroke-linecap="null" stroke-linejoin="null" stroke-width="7">
   <ellipse cx="-687.15" cy="147.48"/>
   <ellipse cx="-745.15" cy="207.48"/>
   <ellipse cx="-727.15" cy="227.48"/>
  </g>
  <g fill-rule="evenodd" stroke-width="10">
   <rect x="4.3545" y="215.54" width="119.89" height="115.87" fill="#fff"/>
   <rect x="-233.65" y="155.54" width="401.89" height="31.871" fill="#e00202"/>
  </g>
 </g>
 <g stroke-dasharray="null" stroke-linecap="null" stroke-linejoin="null" stroke-width="7">
  <ellipse cx="-317.15" cy="683.48" rx="42" ry="40" fill="#ffc700" stroke="#7f3f00"/>
  <g fill="#ff7f00" stroke="#000">
   <ellipse cx="320.85" cy="557.48"/>
   <ellipse cx="220.85" cy="421.48"/>
   <ellipse cx="238.85" cy="435.48"/>
   <ellipse cx="238.85" cy="451.48"/>
  </g>
  <g fill="#ffc700" stroke="#7f3f00">
   <ellipse cx="-141.7" cy="683.48" rx="42" ry="40"/>
   <ellipse cx="60.299" cy="658.48" rx="62" ry="57"/>
  </g>
  <ellipse cx="366.85" cy="631.48" fill="#7f003f" stroke="#bf00bf"/>
 </g>
 <g fill-rule="evenodd" stroke-width="1.25">
  <path d="m-339.44 129.44c0-20.787-18.026-37.638-40.261-37.638-22.236 0-40.261 16.851-40.261 37.638-0.031769 13.466 7.635 25.923 20.105 32.665 12.47 6.7419 27.842 6.7419 40.312 9.2e-5s20.137-19.198 20.105-32.665l-40.261-2e-4h40.261z" fill="#7f007f"/>
  <path d="m-263.44 85.445c0-17.477-14.892-31.645-33.261-31.645-18.37 0-33.261 14.168-33.261 31.645-0.026245 11.322 6.3075 21.795 16.609 27.463 10.302 5.6683 23.002 5.6683 33.304 7.6e-5 10.302-5.6683 16.636-16.141 16.609-27.463l-33.261-1e-4h33.261z" fill="#3f7f00"/>
  <path d="m-344.44 32.458c0-11.408-10.414-20.657-23.261-20.657s-23.261 9.2484-23.261 20.657c-0.018341 7.3908 4.4112 14.227 11.616 17.927 7.2045 3.7001 16.086 3.7002 23.291 5e-5 7.2045-3.7001 11.634-10.536 11.616-17.927l-23.261-1e-4h23.261z" fill="#00f"/>
 </g>
 <g stroke="#000">
  <g fill-rule="evenodd" stroke-width="10">
   <rect x="193.08" y="453.56" width="322.43" height="215.83" fill="#7f007f"/>
   <rect x="551.08" y="453.56" width="322.43" height="215.83" fill="#00f"/>
   <rect x="909.08" y="451.56" width="322.43" height="215.83" fill="#e00202"/>
  </g>
  <g fill="none" stroke-dasharray="null" stroke-linecap="null" stroke-linejoin="null" stroke-width="7">
   <line x1="-419.15" x2="-491.15" y1="643.48" y2="731.48"/>
   <line x1="-455.15" x2="-399.15" y1="729.48" y2="665.48"/>
  </g>
 </g>
 <g fill="#ff7f00" fill-rule="evenodd" stroke-width="1.25">
  <path d="m347.66 679.4c0-39.544-35.039-71.6-78.261-71.6s-78.261 32.057-78.261 71.6c-0.061768 25.618 14.841 49.314 39.08 62.14 24.239 12.825 54.121 12.825 78.361 1.83e-4 24.239-12.825 39.142-36.521 39.081-62.139l-78.261-3e-4h78.261z"/>
  <path d="m521.46 679.4c0-39.544-35.039-71.6-78.261-71.6s-78.261 32.057-78.261 71.6c-0.061768 25.618 14.841 49.314 39.08 62.14 24.239 12.825 54.121 12.825 78.361 1.83e-4 24.239-12.825 39.142-36.521 39.081-62.139l-78.261-3e-4h78.261z"/>
 </g>
 <g fill="#ffc700" stroke="#7f3f00" stroke-dasharray="null" stroke-linecap="null" stroke-linejoin="null" stroke-width="7">
  <ellipse cx="269.45" cy="678.44" rx="42" ry="40"/>
  <ellipse cx="444.9" cy="678.44" rx="42" ry="40"/>
 </g>
 <g fill="#ff7f00" fill-rule="evenodd" stroke-width="1.25">
  <path d="m703.66 679.4c0-39.544-35.039-71.6-78.261-71.6s-78.261 32.057-78.261 71.6c-0.061768 25.618 14.841 49.314 39.08 62.14 24.239 12.825 54.121 12.825 78.361 1.83e-4 24.239-12.825 39.142-36.521 39.081-62.14l-78.261-3e-4h78.261z"/>
  <path d="m877.46 679.4c0-39.544-35.039-71.6-78.261-71.6s-78.261 32.057-78.261 71.6c-0.061768 25.618 14.841 49.314 39.08 62.14 24.239 12.825 54.121 12.825 78.361 1.83e-4 24.239-12.825 39.142-36.521 39.081-62.14l-78.261-3e-4h78.261z"/>
 </g>
 <g fill="#ffc700" stroke="#7f3f00" stroke-dasharray="null" stroke-linecap="null" stroke-linejoin="null" stroke-width="7">
  <ellipse cx="625.45" cy="678.44" rx="42" ry="40"/>
  <ellipse cx="800.9" cy="678.44" rx="42" ry="40"/>
 </g>
 <g fill="#ff7f00" fill-rule="evenodd" stroke-width="1.25">
  <path d="m1061.7 675.4c0-39.544-35.039-71.6-78.261-71.6s-78.261 32.057-78.261 71.6c-0.061768 25.618 14.841 49.314 39.08 62.14 24.239 12.825 54.121 12.825 78.361 1.83e-4 24.239-12.825 39.142-36.521 39.081-62.14l-78.261-2e-4h78.261z"/>
  <path d="m1235.5 675.4c0-39.544-35.039-71.6-78.261-71.6s-78.261 32.057-78.261 71.6c-0.061768 25.618 14.841 49.314 39.08 62.14 24.239 12.825 54.121 12.825 78.361 1.83e-4 24.239-12.825 39.142-36.521 39.081-62.14l-78.261-2e-4h78.261z"/>
 </g>
 <g fill="#ffc700" stroke="#7f3f00" stroke-dasharray="null" stroke-linecap="null" stroke-linejoin="null" stroke-width="7">
  <ellipse cx="983.45" cy="674.44" rx="42" ry="40"/>
  <ellipse cx="1158.9" cy="674.44" rx="42" ry="40"/>
 </g>
</svg>
