<?xml version="1.0" encoding="UTF-8" standalone="no"?>
<svg
   xmlns:dc="http://purl.org/dc/elements/1.1/"
   xmlns:cc="http://creativecommons.org/ns#"
   xmlns:rdf="http://www.w3.org/1999/02/22-rdf-syntax-ns#"
   xmlns:svg="http://www.w3.org/2000/svg"
   xmlns="http://www.w3.org/2000/svg"
   xmlns:sodipodi="http://sodipodi.sourceforge.net/DTD/sodipodi-0.dtd"
   xmlns:inkscape="http://www.inkscape.org/namespaces/inkscape"
   inkscape:export-ydpi="96"
   inkscape:export-xdpi="96"
   inkscape:export-filename="C:\dev\godot\kids math\assests\train_engine.png"
   viewBox="0 0 793.7 1122.5"
   version="1.1"
   id="svg136"
   sodipodi:docname="train_engine.svg"
   inkscape:version="1.0 (4035a4fb49, 2020-05-01)">
  <metadata
     id="metadata142">
    <rdf:RDF>
      <cc:Work
         rdf:about="">
        <dc:format>image/svg+xml</dc:format>
        <dc:type
           rdf:resource="http://purl.org/dc/dcmitype/StillImage" />
        <dc:title />
      </cc:Work>
    </rdf:RDF>
  </metadata>
  <defs
     id="defs140" />
  <sodipodi:namedview
     inkscape:document-rotation="0"
     pagecolor="#ffffff"
     bordercolor="#666666"
     borderopacity="1"
     objecttolerance="10"
     gridtolerance="10"
     guidetolerance="10"
     inkscape:pageopacity="0"
     inkscape:pageshadow="2"
     inkscape:window-width="2736"
     inkscape:window-height="1714"
     id="namedview138"
     showgrid="false"
     inkscape:zoom="0.9983453"
     inkscape:cx="396.85001"
     inkscape:cy="557.57113"
     inkscape:window-x="-12"
     inkscape:window-y="-12"
     inkscape:window-maximized="1"
     inkscape:current-layer="svg136" />
  <g
     stroke="#000000"
     id="g26"
     transform="matrix(-1,0,0,1,204.59551,0)">
    <g
       stroke-dasharray="none"
       stroke-linecap="null"
       stroke-linejoin="null"
       id="g16">
      <ellipse
         transform="rotate(-90.14,-320.67,385.21)"
         cx="-320.67001"
         cy="385.20999"
         rx="23"
         ry="58.945999"
         fill="#00007f"
         stroke-width="7"
         id="ellipse2" />
      <g
         stroke-width="10"
         id="g14">
        <g
           fill="#e00202"
           id="g8">
          <path
             transform="rotate(179.66,-322.82,267.74)"
             d="m -326.57,198.76 -85.266,136.18 178.05,1.7858 c -30.927,-45.989 -61.854,-91.979 -92.781,-137.97 z"
             id="path4" />
          <path
             d="m -433.88,621.48 -88.117,105.14 184,1.3787 c -31.961,-35.507 -63.922,-71.013 -95.883,-106.52 z"
             id="path6" />
        </g>
        <ellipse
           cx="-395.14999"
           cy="531.47998"
           rx="52"
           ry="124"
           fill="#ffc700"
           id="ellipse10" />
      </g>
    </g>
    <g
       fill-rule="evenodd"
       stroke-width="10"
       id="g24">
      <rect
         x="-395.51001"
         y="387.64999"
         width="546.42999"
         height="279.82999"
         fill="#007f00"
         id="rect18" />
      <rect
         x="-205.07001"
         y="187.7"
         width="356.45001"
         height="199.07001"
         fill="#ffc700"
         id="rect20" />
      <rect
         x="-372.85999"
         y="264.45001"
         width="102.61"
         height="111.16"
         fill="#007f00"
         id="rect22" />
    </g>
  </g>
  <g
     fill="#ff7f00"
     fill-rule="evenodd"
     stroke-width="1.25"
     id="g34"
     transform="matrix(-1,0,0,1,204.59551,0)">
    <path
       d="m -238.94,684.44 c 0,-39.544 -35.039,-71.601 -78.261,-71.601 -43.222,0 -78.261,32.057 -78.261,71.601 -0.0618,25.618 14.841,49.314 39.08,62.14 24.239,12.825 54.121,12.825 78.361,1.8e-4 24.239,-12.825 39.142,-36.521 39.081,-62.139 l -78.261,-3e-4 h 78.261 z"
       id="path28" />
    <path
       d="m -65.14,684.44 c 0,-39.544 -35.039,-71.601 -78.261,-71.601 -43.222,0 -78.261,32.057 -78.261,71.601 -0.0618,25.618 14.841,49.314 39.08,62.14 24.239,12.825 54.121,12.825 78.361,1.8e-4 24.239,-12.825 39.142,-36.521 39.081,-62.139 l -78.261,-3e-4 h 78.261 z"
       id="path30" />
    <path
       d="m 169.36,660.41 c 0,-57.198 -48.47,-103.56 -108.26,-103.56 -59.791,0 -108.26,46.368 -108.26,103.56 -0.08545,37.055 20.53,71.33 54.061,89.88 33.531,18.551 74.868,18.551 108.4,2.4e-4 33.531,-18.551 54.147,-52.826 54.062,-89.88 l -108.26,-5e-4 h 108.26 z"
       id="path32" />
  </g>
  <g
     stroke="#000000"
     id="g52"
     transform="matrix(-1,0,0,1,204.59551,0)">
    <rect
       x="-171.12"
       y="213.69"
       width="119.89"
       height="119.87"
       fill="#ffffff"
       fill-rule="evenodd"
       stroke-dasharray="2, 2"
       stroke-linecap="round"
       stroke-linejoin="bevel"
       stroke-width="10"
       id="rect36" />
    <g
       fill="none"
       stroke-dasharray="none"
       stroke-linecap="null"
       stroke-linejoin="null"
       stroke-width="7"
       id="g44">
      <circle
         cx="-687.15002"
         cy="147.48"
         id="ellipse38"
         r="0" />
      <circle
         cx="-745.15002"
         cy="207.48"
         id="ellipse40"
         r="0" />
      <circle
         cx="-727.15002"
         cy="227.48"
         id="ellipse42"
         r="0" />
    </g>
    <g
       fill-rule="evenodd"
       stroke-width="10"
       id="g50">
      <rect
         x="4.3544998"
         y="215.53999"
         width="119.89"
         height="115.87"
         fill="#ffffff"
         id="rect46" />
      <rect
         x="-233.64999"
         y="155.53999"
         width="401.89001"
         height="31.871"
         fill="#e00202"
         id="rect48" />
    </g>
  </g>
  <g
     stroke-dasharray="none"
     stroke-linecap="null"
     stroke-linejoin="null"
     stroke-width="7"
     id="g74"
     transform="matrix(-1,0,0,1,204.59551,0)">
    <ellipse
       cx="-317.14999"
       cy="683.47998"
       rx="42"
       ry="40"
       fill="#ffc700"
       stroke="#7f3f00"
       id="ellipse54" />
    <g
       fill="#ff7f00"
       stroke="#000000"
       id="g64">
      <circle
         cx="320.85001"
         cy="557.47998"
         id="ellipse56"
         r="0" />
      <circle
         cx="220.85001"
         cy="421.48001"
         id="ellipse58"
         r="0" />
      <circle
         cx="238.85001"
         cy="435.48001"
         id="ellipse60"
         r="0" />
      <circle
         cx="238.85001"
         cy="451.48001"
         id="ellipse62"
         r="0" />
    </g>
    <g
       fill="#ffc700"
       stroke="#7f3f00"
       id="g70">
      <ellipse
         cx="-141.7"
         cy="683.47998"
         rx="42"
         ry="40"
         id="ellipse66" />
      <ellipse
         cx="60.299"
         cy="658.47998"
         rx="62"
         ry="57"
         id="ellipse68" />
    </g>
    <circle
       cx="366.85001"
       cy="631.47998"
       fill="#7f003f"
       stroke="#bf00bf"
       id="ellipse72"
       r="0" />
  </g>
  <g
     fill-rule="evenodd"
     stroke-width="1.25"
     id="g82"
     transform="matrix(-1,0,0,1,204.59551,0)">
    <path
       d="m -339.44,129.44 c 0,-20.787 -18.026,-37.638 -40.261,-37.638 -22.236,0 -40.261,16.851 -40.261,37.638 -0.0318,13.466 7.635,25.923 20.105,32.665 12.47,6.7419 27.842,6.7419 40.312,9e-5 12.47,-6.74181 20.137,-19.198 20.105,-32.665 l -40.261,-2e-4 h 40.261 z"
       fill="#7f007f"
       id="path76" />
    <path
       d="m -263.44,85.445 c 0,-17.477 -14.892,-31.645 -33.261,-31.645 -18.37,0 -33.261,14.168 -33.261,31.645 -0.0263,11.322 6.3075,21.795 16.609,27.463 10.302,5.6683 23.002,5.6683 33.304,8e-5 10.302,-5.6683 16.636,-16.141004 16.609,-27.463004 l -33.261,-1e-4 h 33.261 z"
       fill="#3f7f00"
       id="path78" />
    <path
       d="m -344.44,32.458 c 0,-11.408 -10.414,-20.657 -23.261,-20.657 -12.847,0 -23.261,9.2484 -23.261,20.657 -0.0183,7.3908 4.4112,14.227 11.616,17.927 7.2045,3.7001 16.086,3.7002 23.291,5e-5 7.2045,-3.7001 11.634,-10.536 11.616,-17.927 l -23.261,-1e-4 h 23.261 z"
       fill="#0000ff"
       id="path80" />
  </g>
  <g
     stroke="#000000"
     id="g98"
     transform="matrix(-1,0,0,1,204.59551,0)">
    <g
       fill-rule="evenodd"
       stroke-width="10"
       id="g90" />
    <g
       fill="none"
       stroke-dasharray="none"
       stroke-linecap="null"
       stroke-linejoin="null"
       stroke-width="7"
       id="g96">
      <line
         x1="-419.14999"
         x2="-491.14999"
         y1="643.47998"
         y2="731.47998"
         id="line92" />
      <line
         x1="-455.14999"
         x2="-399.14999"
         y1="729.47998"
         y2="665.47998"
         id="line94" />
    </g>
  </g>
</svg>
